<mxfile host="app.diagrams.net" modified="2022-10-09T22:15:25.971Z" agent="5.0 (Windows NT 10.0; Win64; x64) AppleWebKit/537.36 (KHTML, like Gecko) Chrome/106.0.0.0 Safari/537.36" etag="WBXLBqDY6KWpX5FQRd9p" version="20.4.0" type="github">
  <diagram id="lSlJ-HYS_9Z_l3X0xOM6" name="Page-1">
    <mxGraphModel dx="1422" dy="804" grid="1" gridSize="10" guides="1" tooltips="1" connect="1" arrows="1" fold="1" page="1" pageScale="1" pageWidth="827" pageHeight="1169" math="0" shadow="0">
      <root>
        <mxCell id="0" />
        <mxCell id="1" parent="0" />
        <mxCell id="QkVUSJFGGfO0uu8VSSrq-3" value="INTERNET" style="ellipse;shape=cloud;whiteSpace=wrap;html=1;" parent="1" vertex="1">
          <mxGeometry x="30" y="60" width="170" height="140" as="geometry" />
        </mxCell>
        <mxCell id="QkVUSJFGGfO0uu8VSSrq-4" value="" style="endArrow=classic;html=1;rounded=0;" parent="1" edge="1">
          <mxGeometry width="50" height="50" relative="1" as="geometry">
            <mxPoint x="290" y="280" as="sourcePoint" />
            <mxPoint x="180" y="170" as="targetPoint" />
          </mxGeometry>
        </mxCell>
        <mxCell id="QkVUSJFGGfO0uu8VSSrq-5" value="Domain Controller&lt;br&gt;(Server 2019)" style="shape=cube;whiteSpace=wrap;html=1;boundedLbl=1;backgroundOutline=1;darkOpacity=0.05;darkOpacity2=0.1;fillColor=#647687;strokeColor=#314354;fontColor=#ffffff;" parent="1" vertex="1">
          <mxGeometry x="320" y="260" width="120" height="80" as="geometry" />
        </mxCell>
        <mxCell id="QkVUSJFGGfO0uu8VSSrq-6" value="NIC&lt;br&gt;(Internet)" style="shape=card;whiteSpace=wrap;html=1;fillColor=#d0cee2;strokeColor=#56517e;" parent="1" vertex="1">
          <mxGeometry x="270" y="280" width="70" height="60" as="geometry" />
        </mxCell>
        <mxCell id="QkVUSJFGGfO0uu8VSSrq-11" value="NIC&lt;br&gt;(Internal)" style="shape=card;whiteSpace=wrap;html=1;direction=south;fillColor=#d0cee2;strokeColor=#56517e;" parent="1" vertex="1">
          <mxGeometry x="440" y="280" width="70" height="60" as="geometry" />
        </mxCell>
        <mxCell id="QkVUSJFGGfO0uu8VSSrq-12" value="Client1&lt;br&gt;(Windows 10)" style="shape=cube;whiteSpace=wrap;html=1;boundedLbl=1;backgroundOutline=1;darkOpacity=0.05;darkOpacity2=0.1;direction=east;size=20;fillColor=#0050ef;strokeColor=#001DBC;fontColor=#ffffff;" parent="1" vertex="1">
          <mxGeometry x="630" y="273.75" width="120" height="70" as="geometry" />
        </mxCell>
        <mxCell id="QkVUSJFGGfO0uu8VSSrq-13" value="NIC&lt;br&gt;(internal)" style="shape=card;whiteSpace=wrap;html=1;fillColor=#d0cee2;strokeColor=#56517e;" parent="1" vertex="1">
          <mxGeometry x="590" y="293.75" width="60" height="50" as="geometry" />
        </mxCell>
        <mxCell id="QkVUSJFGGfO0uu8VSSrq-15" value="" style="endArrow=none;html=1;rounded=0;entryX=0;entryY=0;entryDx=70;entryDy=80;entryPerimeter=0;" parent="1" target="QkVUSJFGGfO0uu8VSSrq-5" edge="1">
          <mxGeometry width="50" height="50" relative="1" as="geometry">
            <mxPoint x="390" y="460" as="sourcePoint" />
            <mxPoint x="440" y="350" as="targetPoint" />
          </mxGeometry>
        </mxCell>
        <mxCell id="QkVUSJFGGfO0uu8VSSrq-16" value="" style="endArrow=none;html=1;rounded=0;" parent="1" edge="1">
          <mxGeometry width="50" height="50" relative="1" as="geometry">
            <mxPoint x="390" y="400" as="sourcePoint" />
            <mxPoint x="470" y="400" as="targetPoint" />
          </mxGeometry>
        </mxCell>
        <mxCell id="QkVUSJFGGfO0uu8VSSrq-17" value="" style="endArrow=none;html=1;rounded=0;" parent="1" edge="1">
          <mxGeometry width="50" height="50" relative="1" as="geometry">
            <mxPoint x="390" y="400" as="sourcePoint" />
            <mxPoint x="320" y="400" as="targetPoint" />
          </mxGeometry>
        </mxCell>
        <mxCell id="QkVUSJFGGfO0uu8VSSrq-18" value="" style="endArrow=none;html=1;rounded=0;" parent="1" edge="1">
          <mxGeometry width="50" height="50" relative="1" as="geometry">
            <mxPoint x="470" y="400" as="sourcePoint" />
            <mxPoint x="469.5" y="470" as="targetPoint" />
          </mxGeometry>
        </mxCell>
        <mxCell id="QkVUSJFGGfO0uu8VSSrq-19" value="" style="endArrow=none;html=1;rounded=0;" parent="1" edge="1">
          <mxGeometry width="50" height="50" relative="1" as="geometry">
            <mxPoint x="320" y="460" as="sourcePoint" />
            <mxPoint x="320" y="400" as="targetPoint" />
          </mxGeometry>
        </mxCell>
        <mxCell id="QkVUSJFGGfO0uu8VSSrq-20" value="Internal network" style="rounded=1;whiteSpace=wrap;html=1;" parent="1" vertex="1">
          <mxGeometry x="490" y="120" width="130" height="50" as="geometry" />
        </mxCell>
        <mxCell id="QkVUSJFGGfO0uu8VSSrq-23" value="" style="endArrow=classic;startArrow=classic;html=1;rounded=0;entryX=0.5;entryY=1;entryDx=0;entryDy=0;" parent="1" target="QkVUSJFGGfO0uu8VSSrq-20" edge="1">
          <mxGeometry width="50" height="50" relative="1" as="geometry">
            <mxPoint x="490" y="293.75" as="sourcePoint" />
            <mxPoint x="540" y="243.75" as="targetPoint" />
          </mxGeometry>
        </mxCell>
        <mxCell id="QkVUSJFGGfO0uu8VSSrq-24" value="" style="endArrow=classic;startArrow=classic;html=1;rounded=0;exitX=0.5;exitY=1;exitDx=0;exitDy=0;entryX=0;entryY=0;entryDx=15;entryDy=15;entryPerimeter=0;" parent="1" source="QkVUSJFGGfO0uu8VSSrq-20" target="QkVUSJFGGfO0uu8VSSrq-13" edge="1">
          <mxGeometry width="50" height="50" relative="1" as="geometry">
            <mxPoint x="550" y="350" as="sourcePoint" />
            <mxPoint x="600" y="300" as="targetPoint" />
          </mxGeometry>
        </mxCell>
        <mxCell id="QkVUSJFGGfO0uu8VSSrq-25" value="Active Directory Domain&lt;br&gt;mydomain.com" style="whiteSpace=wrap;html=1;aspect=fixed;fillColor=#b0e3e6;strokeColor=#0e8088;" parent="1" vertex="1">
          <mxGeometry x="270" y="460" width="80" height="80" as="geometry" />
        </mxCell>
        <mxCell id="QkVUSJFGGfO0uu8VSSrq-26" value="NAT" style="whiteSpace=wrap;html=1;aspect=fixed;fillColor=#b0e3e6;strokeColor=#0e8088;" parent="1" vertex="1">
          <mxGeometry x="350" y="460" width="80" height="80" as="geometry" />
        </mxCell>
        <mxCell id="QkVUSJFGGfO0uu8VSSrq-27" value="DHCP" style="whiteSpace=wrap;html=1;aspect=fixed;fillColor=#b0e3e6;strokeColor=#0e8088;" parent="1" vertex="1">
          <mxGeometry x="430" y="460" width="80" height="80" as="geometry" />
        </mxCell>
      </root>
    </mxGraphModel>
  </diagram>
</mxfile>
